<svg width="21" height="21" viewBox="0 0 21 21" fill="none" xmlns="http://www.w3.org/2000/svg">
<path d="M19.9442 16.4896C19.9787 16.3162 19.9482 16.1263 19.8122 15.9565C18.2636 14.0244 16.5979 12.1553 14.8425 10.3639C15.4733 9.67226 16.0979 8.97485 16.7094 8.26949C17.7334 7.08841 19.2914 5.5497 19.4954 3.94858C19.505 3.87358 19.491 3.80923 19.4682 3.75024C19.4734 3.7334 19.483 3.72007 19.4864 3.70189C19.5144 3.55324 19.5002 3.43898 19.4713 3.28981C19.5122 3.5021 19.4324 3.06296 19.4007 3.00883C19.3485 2.91957 19.2617 2.83414 19.1963 2.7516C18.9343 2.42133 18.6496 2.10843 18.3583 1.80399C17.9797 1.40802 17.1667 0.494813 16.5176 0.724355C16.3288 0.489648 15.9855 0.392336 15.7277 0.683654C14.0252 2.60811 12.097 4.29145 10.137 5.94081C8.28158 4.33866 6.35682 2.82763 4.37854 1.43127C4.268 1.35327 4.1521 1.39263 4.07731 1.47455C3.977 1.46753 3.8739 1.48953 3.77814 1.5541C3.2894 1.88384 2.87123 2.34396 2.44221 2.74705C1.92114 3.23661 1.38737 3.71336 0.859586 4.19579C0.789959 4.25953 0.750496 4.33401 0.733864 4.41149C0.490686 4.47492 0.364758 4.82016 0.640787 4.9932C2.61255 6.22933 4.26677 7.88086 5.79711 9.64901C5.59133 9.83393 5.38245 10.0155 5.17946 10.2034C3.79146 11.4884 2.4232 12.8262 1.27094 14.3313C0.762376 14.9956 -0.396387 16.428 0.137386 17.3407C0.245545 17.5258 0.531698 17.5324 0.638308 17.3407C0.651944 17.3163 0.667543 17.2932 0.681282 17.2688C0.918056 17.747 1.30886 18.188 1.64769 18.5343C2.11205 19.0086 2.87319 19.7787 3.60675 19.7141C3.64673 19.9038 3.91625 19.9794 4.05592 19.8371C5.34464 18.5232 6.50826 17.356 8.04377 16.2878C8.71701 15.8194 9.40574 15.3562 10.0789 14.8721C11.0471 16.0296 12.0479 17.1596 13.1503 18.192C14.1084 19.0893 15.5128 20.4629 16.8863 20.5032C17.0524 20.508 17.1768 20.4355 17.2538 20.3279C18.0662 19.9783 18.8103 19.3623 19.385 18.6986C19.8253 18.1897 20.5366 17.1009 19.9442 16.4896ZM4.43081 6.76373C4.5492 6.82726 4.66883 6.88914 4.79031 6.94823C4.80787 6.96403 4.82554 6.97953 4.8431 6.99534C4.85767 7.03542 4.87172 7.0756 4.89888 7.1129C4.95043 7.18356 5.00477 7.25174 5.05694 7.32188C4.85116 7.1318 4.64259 6.94565 4.43081 6.76373ZM2.82867 17.8415C2.77247 17.8782 2.7266 17.9225 2.68941 17.9711C2.65904 17.944 2.62908 17.9168 2.59913 17.8894C2.7203 17.8097 2.83869 17.7269 2.95759 17.6449C2.9922 17.6555 3.02753 17.6625 3.06327 17.6671C3.06699 17.673 3.07123 17.6782 3.07515 17.6838C2.99344 17.7367 2.91017 17.788 2.82867 17.8415ZM12.0206 11.5864C11.9533 11.5361 11.8859 11.4857 11.8192 11.4345C11.6068 11.2001 11.3938 10.9667 11.1798 10.7341C11.4632 11.0152 11.7501 11.2925 12.0428 11.5634C12.0353 11.571 12.0281 11.5788 12.0206 11.5864Z" fill="#1A1A1A"/>
</svg>
