<svg width="21" height="21" viewBox="0 0 21 21" fill="none" xmlns="http://www.w3.org/2000/svg">
<path d="M20.5259 2.10231C20.5185 2.06695 20.5041 2.03117 20.48 1.99582C19.4205 0.438478 16.7637 0.522629 15.1113 0.503434C14.9452 0.501482 14.8642 0.673363 14.9002 0.805229C14.7528 0.845353 14.6137 0.899249 14.4942 0.982207C12.7956 2.16141 11.986 4.63736 11.1839 6.44249C10.416 8.17074 9.54785 9.84693 8.80101 11.5851C8.4836 12.3239 7.6346 13.8154 7.50111 14.9495C6.02304 12.2423 4.65136 9.49146 3.33075 6.70091C3.26123 6.55397 3.10248 6.53597 2.97679 6.59247C2.64908 6.4015 2.22507 6.55039 1.87784 6.6379C1.4046 6.7573 0.910857 6.89784 0.468955 7.10854C0.397058 7.14281 0.356284 7.19161 0.330474 7.24431C0.17139 7.17632 -0.0466877 7.31242 0.00883473 7.5165C1.19855 11.8924 4.49628 15.5767 6.19069 19.7814C6.25218 19.9341 6.3796 20.007 6.51168 20.024C6.54313 20.0882 6.59714 20.1402 6.68053 20.1589C7.30396 20.299 7.92794 20.3733 8.5646 20.4243C9.12124 20.4688 9.77102 20.5817 10.3105 20.4163C10.4966 20.3592 10.5719 20.1847 10.5439 20.0276C10.5878 20.0194 10.6342 19.9935 10.6826 19.9402C10.7385 19.8789 10.6818 19.8002 10.6074 19.811C11.0522 19.7469 11.4589 17.7873 11.5835 17.447C11.9823 16.3585 12.4202 15.2839 12.858 14.2105C13.1114 13.5897 13.3955 12.9753 13.7003 12.3667C13.8194 12.1543 13.9298 11.9352 14.0369 11.7134C15.7747 8.44813 18.1574 5.38475 20.5104 2.6636C20.6701 2.47914 20.6401 2.25673 20.5259 2.10231ZM2.6391 7.41262C2.61394 7.36544 2.59041 7.31708 2.56601 7.26936C2.68454 7.24063 2.80046 7.20614 2.9024 7.15051C2.92192 7.20527 2.94437 7.25885 2.9641 7.31339C2.85132 7.29669 2.72737 7.33465 2.6391 7.41262ZM4.45085 11.0531C4.42872 11.0222 4.40877 10.99 4.38632 10.9591C4.38264 10.954 4.37754 10.9524 4.37364 10.9476C4.3179 10.7205 4.25728 10.4953 4.1895 10.2728C4.19059 10.2709 4.19156 10.2691 4.19265 10.2673C4.30391 10.507 4.41582 10.7463 4.5312 10.9843C4.50127 11.0027 4.4759 11.028 4.45085 11.0531ZM9.2736 19.6906C9.33097 19.6093 9.34495 19.5014 9.3224 19.4018C9.39343 19.3509 9.46088 19.295 9.52681 19.2371C9.51456 19.2879 9.49938 19.3375 9.48734 19.3884C9.45817 19.5124 9.49146 19.6099 9.55208 19.6812C9.45925 19.6826 9.36643 19.6864 9.2736 19.6906ZM11.5944 15.1212C11.5174 15.3165 11.4289 15.5228 11.3351 15.7359C11.3408 15.6906 11.3464 15.645 11.3511 15.5991C11.4654 15.2967 11.5888 14.9965 11.7122 14.6965C11.7384 14.6775 11.7657 14.6598 11.7914 14.6406C11.7254 14.8008 11.6579 14.9601 11.5944 15.1212ZM13.7602 10.6135C13.3762 11.2934 13.0105 11.9828 12.6691 12.6836C12.5624 12.8371 12.4505 12.9856 12.333 13.1286C12.7998 12.2309 13.3104 11.3562 13.8157 10.4794C13.7975 10.5243 13.7787 10.5688 13.7602 10.6135ZM16.4171 2.55798C16.4439 2.51124 16.4707 2.4645 16.4999 2.41831C16.6205 2.26768 16.7376 2.1099 16.8499 1.93823C16.8624 1.93813 16.8746 1.93682 16.8871 1.93693C16.96 1.95699 17.0328 1.97716 17.1057 1.99994C17.0324 2.00709 16.9579 2.03301 16.8902 2.10036C16.7316 2.2576 16.5748 2.40909 16.4171 2.55798Z" fill="#990000"/>
</svg>
