<svg width="60" height="61" viewBox="0 0 60 61" fill="none" xmlns="http://www.w3.org/2000/svg">
<g clip-path="url(#clip0)">
<path d="M28.5049 0.828017C23.7174 0.88581 13.4247 1.67254 7.66776 6.95406C3.38549 11.1972 1.89034 17.4705 1.71509 25.2278C1.56968 32.9571 1.39444 47.4724 15.3859 51.4247V57.4445C15.3859 57.4445 15.2983 59.8532 16.8904 60.3472C18.8516 60.968 19.9683 59.1149 21.8326 57.1238L25.3095 53.1921C34.8826 53.9881 42.2148 52.1537 43.0593 51.8815C45.0019 51.2607 55.9434 49.8625 57.7313 35.3453C59.5657 20.3527 56.8383 10.9063 51.9147 6.6334H51.8849C50.399 5.26502 44.4277 0.913774 31.0869 0.865302C31.0869 0.865302 30.097 0.798188 28.5049 0.826152V0.828017ZM28.6689 5.04317C30.028 5.03385 30.8539 5.09164 30.8539 5.09164C42.1459 5.12147 47.5355 8.52006 48.8069 9.66473C52.9531 13.2181 55.0896 21.7341 53.5254 34.2509C52.0396 46.3874 43.1656 47.1555 41.5232 47.6794C40.8241 47.9031 34.3662 49.4952 26.2304 48.9713C26.2304 48.9713 20.1715 56.2831 18.2774 58.166C17.9773 58.496 17.6268 58.5929 17.4031 58.5444C17.0824 58.4661 16.9855 58.069 17.0041 57.5247L17.0619 47.534C5.19572 44.2528 5.89482 31.8721 6.02159 25.4049C6.16701 18.9377 7.38066 13.6468 10.9936 10.0637C15.8576 5.66584 24.5973 5.073 28.6652 5.04317H28.6689ZM29.5638 11.5085C29.4661 11.5075 29.3692 11.5259 29.2787 11.5625C29.1882 11.5992 29.1058 11.6533 29.0363 11.722C28.9668 11.7906 28.9116 11.8723 28.8738 11.9624C28.836 12.0524 28.8165 12.1491 28.8162 12.2468C28.8162 12.6644 29.1555 12.9943 29.5638 12.9943C31.4122 12.9592 33.2494 13.2903 34.9692 13.9687C36.689 14.647 38.2576 15.6591 39.5843 16.9466C42.2931 19.5771 43.613 23.1118 43.6634 27.7334C43.6634 28.1417 43.9934 28.481 44.411 28.481V28.4511C44.6078 28.4516 44.7968 28.3743 44.9368 28.236C45.0769 28.0977 45.1566 27.9097 45.1585 27.7129C45.2491 25.5375 44.8963 23.3665 44.1217 21.3317C43.3471 19.297 42.1668 17.441 40.6526 15.8765C37.7014 12.9925 33.9616 11.5066 29.5638 11.5066V11.5085ZM19.7371 13.2181C19.2094 13.141 18.6713 13.2469 18.2122 13.5182H18.173C17.1071 14.143 16.1469 14.9327 15.3281 15.8579C14.6476 16.6446 14.2785 17.4407 14.1816 18.2069C14.1238 18.6636 14.1629 19.1204 14.299 19.5566L14.3475 19.5865C15.1137 21.8385 16.1148 24.0048 17.3378 26.0443C18.9132 28.9097 20.8519 31.5596 23.1059 33.9284L23.173 34.0254L23.2793 34.1036L23.3464 34.1819L23.4247 34.2491C25.8021 36.5097 28.4584 38.4575 31.3293 40.0451C34.6104 41.8311 36.6015 42.6756 37.7965 43.0261V43.0448C38.147 43.151 38.4657 43.1995 38.7864 43.1995C39.8048 43.1249 40.769 42.7114 41.525 42.025C42.446 41.206 43.2269 40.2418 43.8368 39.1708V39.1521C44.4091 38.0746 44.2152 37.0548 43.3893 36.365C41.7354 34.9193 39.9468 33.6351 38.0481 32.5302C36.7767 31.8404 35.4848 32.258 34.9609 32.9571L33.8442 34.3647C33.2719 35.0638 32.2316 34.9668 32.2316 34.9668L32.2018 34.9855C24.4445 33.0037 22.3751 25.1495 22.3751 25.1495C22.3751 25.1495 22.2782 24.0813 22.9959 23.5369L24.3941 22.4109C25.0634 21.8665 25.5295 20.5764 24.8117 19.3031C23.7144 17.4018 22.4331 15.6128 20.9862 13.9619C20.6699 13.5727 20.2261 13.3079 19.7334 13.2143L19.7371 13.2181ZM30.8539 15.4328C29.8639 15.4328 29.8639 16.928 30.8632 16.928C32.0941 16.948 33.3091 17.2103 34.4386 17.7001C35.5681 18.1898 36.59 18.8973 37.446 19.7822C38.2268 20.6435 38.8268 21.6528 39.2104 22.7502C39.5941 23.8477 39.7535 25.0109 39.6794 26.1711C39.6828 26.3675 39.763 26.5547 39.9027 26.6927C40.0424 26.8306 40.2306 26.9084 40.427 26.9094L40.4568 26.9485C40.6546 26.9471 40.8439 26.8678 40.9838 26.7279C41.1237 26.5881 41.2029 26.3988 41.2044 26.2009C41.2715 23.2386 40.3505 20.7535 38.5441 18.7624C36.7282 16.7714 34.1947 15.6547 30.9601 15.4328H30.8539ZM32.0787 19.4522C31.0589 19.4224 31.0198 20.9474 32.0302 20.9772C34.4874 21.104 35.6805 22.3456 35.8371 24.8997C35.8405 25.0935 35.9197 25.2784 36.0577 25.4146C36.1956 25.5509 36.3815 25.6277 36.5754 25.6286H36.6052C36.7049 25.6243 36.8027 25.6002 36.893 25.5577C36.9833 25.5153 37.0642 25.4552 37.131 25.3811C37.1978 25.307 37.2492 25.2203 37.2822 25.1261C37.3151 25.032 37.329 24.9322 37.3229 24.8326C37.1477 21.5029 35.3319 19.6275 32.1085 19.4541H32.0787V19.4522Z" fill="#1A1A1A"/>
</g>
<defs>
<clipPath id="clip0">
<rect width="59.6571" height="59.6571" fill="white" transform="translate(0.171432 0.818359)"/>
</clipPath>
</defs>
</svg>
