<svg width="60" height="61" viewBox="0 0 60 61" fill="none" xmlns="http://www.w3.org/2000/svg">
<path d="M42.495 36.2479C41.8096 35.891 38.3948 34.1957 37.7596 33.9663C37.1245 33.7241 36.6591 33.6094 36.2 34.3232C35.7347 35.0306 34.414 36.6048 33.999 37.0828C33.5965 37.5544 33.1877 37.6118 32.5023 37.2613C28.4272 35.1963 25.7545 33.5776 23.0692 28.906C22.3586 27.6632 23.7798 27.7525 25.1067 25.0693C25.3331 24.5977 25.2199 24.1962 25.0439 23.8393C24.8678 23.4824 23.4843 20.0281 22.9057 18.6197C22.346 17.2494 21.7674 17.4406 21.3461 17.4151C20.9436 17.3896 20.4845 17.3896 20.0192 17.3896C19.5538 17.3896 18.8055 17.5681 18.1703 18.2628C17.5351 18.9702 15.7429 20.6718 15.7429 24.1261C15.7429 27.5804 18.2269 30.9263 18.5665 31.3979C18.9187 31.8695 23.4528 38.9565 30.4144 42.0093C34.8165 43.934 36.5396 44.0997 38.7407 43.7683C40.0802 43.5643 42.8409 42.073 43.4132 40.4224C43.9854 38.7781 43.9854 37.3696 43.8157 37.0764C43.6459 36.7641 43.1805 36.5857 42.495 36.2479Z" fill="#1A1A1A"/>
<path d="M55.8114 19.7306C54.3902 16.3538 52.3529 13.3228 49.7558 10.7195C47.1588 8.12245 44.1279 6.07876 40.7449 4.6639C37.2864 3.21131 33.6141 2.47559 29.8286 2.47559H29.7028C25.8922 2.49445 22.201 3.24904 18.7299 4.73307C15.3783 6.1668 12.3726 8.20419 9.8007 10.8012C7.22883 13.3983 5.21032 16.4167 3.81435 19.7809C2.36806 23.2646 1.63863 26.9684 1.6575 30.7791C1.67636 35.1431 2.7202 39.4757 4.67583 43.3493V52.9075C4.67583 54.5047 5.9712 55.8001 7.56839 55.8001H17.1327C21.0062 57.7557 25.3388 58.7996 29.7028 58.8184H29.8349C33.6015 58.8184 37.2549 58.089 40.6946 56.6616C44.0587 55.2593 47.0834 53.247 49.6741 50.6751C52.2711 48.1032 54.3148 45.0974 55.7422 41.7458C57.2262 38.2747 57.9808 34.5835 57.9996 30.7728C58.0185 26.9432 57.2765 23.2269 55.8114 19.7306ZM46.3099 47.2732C41.9019 51.6372 36.0539 54.0394 29.8286 54.0394H29.7217C25.9299 54.0205 22.1633 53.0773 18.8368 51.304L18.3086 51.021H9.45485V42.1671L9.17188 41.6389C7.39861 38.3124 6.45539 34.5457 6.43652 30.7539C6.41137 24.4845 8.80717 18.5987 13.2026 14.1655C17.5918 9.73224 23.4586 7.27982 29.728 7.25467H29.8349C32.979 7.25467 36.0287 7.86463 38.9024 9.07198C41.707 10.2479 44.2222 11.9394 46.3854 14.1026C48.5422 16.2595 50.24 18.7811 51.4159 21.5856C52.6358 24.4908 53.2458 27.5721 53.2332 30.7539C53.1955 37.017 50.7368 42.884 46.3099 47.2732Z" fill="#1A1A1A"/>
</svg>
